<svg width="32.000000" height="32.000000" viewBox="0 0 32 32" fill="none" xmlns="http://www.w3.org/2000/svg" xmlns:xlink="http://www.w3.org/1999/xlink">
	<desc>
			Created with Pixso.
	</desc>
	<defs>
		<clipPath id="clip440_21">
			<rect id="Award" width="32.000000" height="32.000000" fill="white" fill-opacity="0"/>
		</clipPath>
	</defs>
	<g clip-path="url(#clip440_21)">
		<path id="Award" d="M20.7909 17.3901C21.952 16.1904 22.6666 14.5562 22.6666 12.7544C22.6666 9.07275 19.6818 6.08789 15.9999 6.08789C12.318 6.08789 9.33325 9.07275 9.33325 12.7544C9.33325 14.5562 10.0477 16.1904 11.2089 17.3901L10.0181 24.5352L11.9948 25.9121L15.9999 23.6235L20.0051 25.9121L21.9818 24.5352L20.7909 17.3901ZM19.9999 12.7544C19.9999 14.9639 18.2091 16.7544 15.9999 16.7544C13.7908 16.7544 11.9999 14.9639 11.9999 12.7544C11.9999 10.5454 13.7908 8.75439 15.9999 8.75439C18.2091 8.75439 19.9999 10.5454 19.9999 12.7544ZM18.3546 18.9937C17.6226 19.27 16.8289 19.4214 15.9999 19.4214C15.171 19.4214 14.3773 19.27 13.6451 18.9937L13.1101 22.2036L15.9999 20.5522L18.8896 22.2036L18.3546 18.9937Z" fill="#FFFFFF" fill-opacity="1.000000" fill-rule="evenodd"/>
	</g>
</svg>
