<svg width="165.000000" height="67.000000" viewBox="0 0 165 67" fill="none" xmlns="http://www.w3.org/2000/svg" xmlns:xlink="http://www.w3.org/1999/xlink">
	<desc>
			Created with Pixso.
	</desc>
	<defs>
		<clipPath id="clip407_11">
			<rect id="baikal 1" width="165.000000" height="67.000000" fill="white" fill-opacity="0"/>
		</clipPath>
	</defs>
	<rect id="baikal 1" width="165.000000" height="67.000000" fill="#FFFFFF" fill-opacity="0"/>
	<g clip-path="url(#clip407_11)">
		<path id="Vector" d="M49.1377 42.6797C52.3239 42.9131 53.6601 41.6333 54.5757 39.0918L57.9954 26.0293C58.1262 25.5435 58.2851 25.3379 59.0606 25.2441L61.4713 25.0762L57.603 39.9888C56.8087 42.0537 55.0055 43.8945 53.2863 44.2495C51.6793 44.4268 49.8478 43.8755 49.1377 42.6797Z" fill="#FFFFFF" fill-opacity="1.000000" fill-rule="evenodd"/>
		<path id="Vector" d="M53.118 39.5674C51.0997 38.6328 50.9877 37.4746 51.0997 35.5869C50.6512 29.1772 59.7334 15.4795 64.7228 15.5166C68.7905 15.7983 65.8201 26.2168 60.1257 34.2417L61.5272 36.54C61.9572 37.0913 62.1065 38.0068 61.4712 38.7827L59.8454 40.2964C60.7517 41.6792 63.0876 42.0527 63.8257 41.9219C65.6478 41.5293 65.928 40.1001 65.8441 39.3994C65.788 38.3433 65.4796 37.3716 65.0031 36.2876L66.6849 34.3535L66.741 38.7827C67.5259 42.5762 70.3291 40.1748 72.2912 37.6895C74.3842 42.062 76.6454 36.9888 77.9814 36.54C80.7191 41.2681 81.9431 36.1289 83.8398 35.4746L83.3634 37.5771L85.69 37.3247C86.6337 36.998 86.6804 36.2783 86.7551 35.7554L87.2036 33.7368C87.3158 33.167 87.7642 33.0454 88.2127 33.793C89.2779 35.7368 91.1841 38.689 92.4174 38.6143C93.8002 38.3716 94.4543 34.5967 95.4727 33.1763C97.9487 37.4746 99.2757 32.4102 101.135 31.9712C103.349 36.8672 105.172 30.4946 107.442 30.1489C109.115 34.1572 110.394 32.0269 111.03 31.8306L111.234 31.8989C99.4503 44.1299 89.1709 39.6348 84.8212 40.5361C83.4944 40.4238 82.6161 41.3208 82.3545 42.0498L81.4575 43.9561L60.7706 44.6846C49.5023 45.3198 47.3718 51.3374 47.484 55C50.3431 48.665 69.7966 49.562 77.7574 49.6182C79.6635 49.749 79.8878 48.1416 80.4484 47.3198C80.8967 46.2173 81.6818 44.666 82.2985 44.5166C102.864 45.543 108.849 36.3813 112.522 30.8599L113.691 29.1553C113.805 28.9995 113.917 28.8496 114.029 28.707C113.964 28.7881 113.9 28.8657 113.835 28.9458L114.394 28.1309L114.562 27.7944L112.263 29.1963C111.777 29.3271 111.236 28.9253 111.142 27.9067C110.877 25.5107 114.844 22.0259 116.853 19.2559C119.216 15.998 117.931 12.6963 116.58 13.0225C111.217 14.7334 109.09 21.8457 107.61 28.916C107.199 29.3081 106.395 30.6816 105.031 30.2612C105.33 27.645 106.078 24.7485 107.106 22.0762C105.984 21.9453 104.947 22.1792 103.91 22.6929L103.125 24.2344C102.564 22.3843 98.416 21.7959 96.0053 28.5234L94.0992 33.625C93.959 34.1577 93.3423 34.8301 92.4174 34.8022C91.2588 34.6528 90.0442 33.8584 89.4462 32.3354C93.6134 31.9434 96.8556 26.1968 95.3326 24.2627C93.7909 22.4404 91.6324 25.8042 89.7824 25.9443L91.3942 18.8945C90.2916 18.9785 88.9509 19.0205 88.3809 19.8896L84.5687 33.5688C84.1575 34.1577 81.3077 37.0728 82.3262 33.5688L84.1762 26.5049L81.4292 27.0098C80.7004 27.271 80.5322 27.7568 80.42 28.2988L78.7943 34.7461C78.2057 35.4844 77.3367 36.0542 76.2714 36.0356L78.2897 27.8506C77.2619 27.8228 76.1781 28.0469 75.1223 28.5234L74.4214 30.1211C73.7674 29.5234 72.5807 27.9722 70.5531 29.5327L64.4424 35.5312C63.5547 35.3066 62.8073 34.8022 62.4523 33.8491C75.1316 21.3564 69.5908 13.7139 66.3485 14.0596C55.4847 15.5762 47.2489 28.4165 47.0071 34.6338C46.8016 39.4741 51.109 40.0254 53.118 39.5674L53.118 39.5674ZM70.8619 37.3965C69.3483 35.8452 71.5347 31.3228 73.0483 31.2295C74.9545 31.3232 71.9832 38.312 70.8619 37.3965ZM61.1632 40.312L62.3404 39.1064C62.4619 39.6392 62.4993 40.0596 62.2563 40.5361C61.6677 40.6016 61.3875 40.5547 61.1632 40.312ZM88.5773 31.2856C88.2504 29.333 89.325 27.436 91.0441 27.2495C92.997 28.0342 89.764 31.7061 88.5773 31.2856ZM101.948 25.063C101.468 25.063 99.958 26.0396 99.4534 28.2583C98.9489 30.4775 99.0015 31.4541 99.4814 31.4541C99.9613 31.4541 100.967 31.2065 101.864 28.8188C102.761 26.4316 102.428 25.063 101.948 25.063L101.948 25.063ZM112.908 22.708C113.623 19.9985 115.197 17.2329 117.225 14.7476C118.645 15.5513 115.188 20.6714 112.908 22.708Z" fill="#FFFFFF" fill-opacity="1.000000" fill-rule="evenodd"/>
		<path id="Vector" d="M83.7985 19.8906C84.7042 19.8906 85.4382 20.7627 85.4382 21.8389C85.4382 22.9146 84.7042 23.7871 83.7985 23.7871C82.8928 23.7871 82.1587 22.9146 82.1587 21.8389C82.1587 20.7627 82.8928 19.8906 83.7985 19.8906Z" fill="#FFFFFF" fill-opacity="1.000000" fill-rule="evenodd"/>
	</g>
</svg>
