<svg width="165.000000" height="67.000000" viewBox="0 0 165 67" fill="none" xmlns="http://www.w3.org/2000/svg" xmlns:xlink="http://www.w3.org/1999/xlink">
	<desc>
			Created with Pixso.
	</desc>
	<defs>
		<clipPath id="clip439_649">
			<rect id="Frame 143" width="165.000000" height="67.000000" fill="white" fill-opacity="0"/>
		</clipPath>
	</defs>
	<g clip-path="url(#clip439_649)">
		<path id="Vector" d="M63.2325 37.438C63.1691 38.4663 62.8695 38.9893 61.844 38.9893L61.6866 39.48L66.4664 39.48L66.6079 38.9893C65.6298 38.9893 65.6771 38.2368 65.7245 37.5308L66.5131 27.2778C65.8666 27.5386 64.8251 27.9683 64.0051 28.0459L57.68 37.2847C57.1749 38.022 56.4971 38.8359 55.535 38.9893L55.3775 39.48L59.0211 39.48L59.1632 38.9893C57.68 38.9893 58.3112 37.9453 58.7689 37.2393L59.5735 36.0415L63.3279 36.0415L63.2325 37.438ZM63.7529 30.3623L63.3746 35.1665L60.204 35.1665L63.4693 30.4233L63.7529 30.3623ZM77.1757 37.5303C76.8448 38.6807 76.4031 39.0337 75.1407 39.0337L74.9833 39.4795L80.7092 39.4795L80.8667 39.0337C79.589 39.0645 79.4155 38.6196 79.7151 37.5303L82.0963 29.4565C82.4279 28.3057 82.8536 27.9531 84.1153 27.9531L84.21 27.5229L74.8558 27.5229L74.6984 27.9531C76.2129 27.9531 75.834 29.0269 75.471 29.9634L72.3478 37.8218C72.111 38.4048 71.3223 38.9116 70.8646 38.8652C70.3916 38.8345 69.9499 38.4502 69.9339 37.9897C69.9025 37.3452 70.6438 37.0845 70.9434 37.0845C70.9434 36.5312 70.3128 36.0249 69.6503 36.0708C68.9878 36.1162 68.2619 36.7461 68.2619 37.6211C68.2619 38.7114 69.1139 39.7085 70.3442 39.7085C71.5585 39.7085 72.7888 39.2334 73.2466 38.0664L76.4017 30.085C76.9535 28.689 77.7422 28.0596 78.6255 28.0898C79.4148 28.105 79.7144 28.8877 79.5249 29.5635L77.1757 37.5303ZM95.7106 30.8999L96.0576 30.8999L97.0037 27.5229L86.6413 27.5229L85.5364 30.8999L85.9468 30.8999C86.6567 29.4565 88.7864 28.0903 90.427 28.0449L87.5394 37.5303C87.1771 38.7729 86.6086 38.9883 85.2849 38.9883L85.1902 39.4795L91.4205 39.4795L91.5159 38.9883C90.2375 38.9883 89.7491 38.7886 90.1281 37.5303L92.9664 28.0449C94.6057 28.0449 95.7106 29.3643 95.7106 30.8999ZM103.502 29.457C103.802 28.4287 104.228 27.9536 105.411 27.9536L105.553 27.5239L99.9367 27.5239L99.7632 27.9536C101.026 27.9536 101.246 28.3364 100.931 29.457L98.5803 37.5308C98.1713 38.9893 96.4992 39.0347 96.4992 39.0347L96.4038 39.48L102.019 39.48L102.161 39.0347C101.136 39.0347 100.711 38.6509 101.073 37.6226L107.398 30.7002L105.41 37.5308C105.111 38.5596 104.638 39.0347 103.454 39.0347L103.359 39.48L108.989 39.48L109.1 39.0347C107.886 39.0347 107.617 38.6665 107.932 37.5308L110.33 29.457C110.646 28.3672 111.103 27.9536 112.366 27.9536L112.523 27.5239L106.893 27.5239L106.751 27.9536C107.633 27.9536 107.965 28.106 107.886 28.9194L107.886 29.1655L101.576 35.9346L103.502 29.457ZM118.566 29.457C118.866 28.4595 119.071 27.999 120.254 27.9536L120.349 27.5239L114.985 27.5239L114.828 27.9536C116.09 27.9536 116.311 28.2754 115.964 29.457L113.582 37.5308C113.283 38.605 112.746 39.0347 111.547 39.0347L111.437 39.48L117.084 39.48L117.226 39.0347C115.996 39.0347 115.885 38.5283 116.169 37.5308L117.115 34.3999L118.125 33.5557L120.334 37.623C120.65 38.2061 120.239 38.9893 119.498 38.9893L119.34 39.4185L124.529 39.4185L124.671 38.9893C123.725 38.8965 123.457 38.2681 123.079 37.5308L120.16 31.8975L123.299 29.2578C124.04 28.6445 124.703 27.9995 125.743 27.9536L125.886 27.5239L121.864 27.5239L121.722 27.9536C123.252 27.9536 122.291 29.1509 121.754 29.5806L117.526 32.9258L118.566 29.457ZM133.678 37.438C133.614 38.4517 133.299 38.9893 132.29 38.9893L132.148 39.48L136.926 39.48L137.069 38.9893C136.044 38.9893 136.138 38.2524 136.187 37.5308L136.975 27.2778C136.265 27.585 135.288 27.9683 134.482 28.0459L128.126 37.2847C127.622 38.022 126.958 38.8359 125.997 38.9893L125.855 39.48L129.467 39.48L129.625 38.9893C128.095 38.9893 128.773 37.9453 129.23 37.2393L130.035 36.0415L133.789 36.0415L133.678 37.438ZM134.23 30.3623L133.835 35.1665L130.68 35.1665L133.93 30.4233L134.23 30.3623ZM49.336 33.1255C50.5816 33.1255 51.7172 33.7544 51.7172 35.0288C51.7172 37.0542 49.9818 38.8042 47.9789 38.8042C47.6473 38.8042 47.4111 38.4819 47.5058 38.1592L48.941 33.1255L49.336 33.1255ZM46.4963 27.5229L46.4016 27.7837C45.2974 28.1821 44.1298 28.5049 42.9789 28.4438C40.4868 28.3516 38.1203 26.9702 35.6123 27.0005C33.3251 27.0464 30.6596 28.5513 29.8863 30.8687C31.1794 29.917 33.167 29.0425 34.887 28.9805C37.395 28.9038 39.7449 30.27 42.2536 30.3315C43.8622 30.3623 45.9919 29.3955 46.8753 27.9985C47.8535 28.1211 47.7427 28.7197 47.5378 29.4565L45.1559 37.5303C44.825 38.6807 44.352 39.0337 43.0583 39.0337L42.9475 39.4795L49.0357 39.4795C51.3703 39.4795 54.32 38.0674 54.32 35.5659C54.32 33.2793 51.7806 32.4492 49.8404 32.4492L49.1938 32.4492L50.4242 28.1826L51.0707 28.1826C53.4206 28.1826 54.6196 28.6123 55.2981 30.8389L55.6451 30.8389L55.2668 27.5239L46.4963 27.5239L46.4963 27.5229ZM34.1611 31.667C36.6691 31.6367 39.035 33.0176 41.543 33.1099C42.9468 33.1714 44.3506 32.6953 45.6757 32.1743C45.0292 33.8315 42.5999 35.0596 40.8171 35.0132C38.3091 34.9517 35.9432 33.5864 33.4505 33.6475C31.7151 33.6934 29.8383 34.5527 28.4505 35.5508C29.1771 33.2783 31.8112 31.7124 34.1611 31.667ZM32.726 36.3486C35.218 36.3174 37.5839 37.6992 40.0919 37.7915C41.4957 37.853 42.8994 37.377 44.2405 36.855C43.578 38.5132 41.1647 39.7407 39.3666 39.6948C36.8746 39.6333 34.4927 38.2524 32 38.3286C30.2493 38.3911 28.3878 39.2354 27 40.2324C27.7413 37.9595 30.36 36.394 32.726 36.3486Z" fill="#FFFFFF" fill-opacity="1.000000" fill-rule="evenodd"/>
		<path id="Vector" d="M56.4023 40.2778L55.992 39.8794L59.6356 39.8794L60.0453 40.2778L56.4023 40.2778ZM137.59 27.6919L138 28.0757L137.29 37.5762C137.275 37.9443 137.259 38.436 137.495 38.7578C136.944 38.2056 136.769 38.1138 136.833 37.377L137.59 27.6919ZM133.173 40.2778L132.763 39.8794L137.542 39.8794L137.952 40.2778L133.173 40.2778ZM132.494 34.7983L131.958 34.6445L133.393 32.5117L133.282 33.6621L132.494 34.7983ZM129.75 38.6963C129.055 38.1743 130.381 36.8545 130.649 36.4561L133.094 36.4561L133.094 36.8394L131.06 36.8394C130.76 37.2847 129.561 38.4976 130.176 39.1113L129.75 38.6963ZM126.879 40.2778L126.469 39.8794L130.097 39.8794L130.507 40.2778L126.879 40.2778ZM120.364 40.231L119.954 39.8325L125.143 39.8325L125.553 40.231L120.364 40.231ZM121.122 28.7817C120.316 28.8584 120.017 29.104 119.701 29.8721L119.402 30.8691L118.724 31.4062L119.182 29.8408C119.182 29.856 119.481 28.4751 120.869 28.3672L121.122 28.6123L121.295 28.7656C121.231 28.7656 121.169 28.7817 121.122 28.7817ZM121.122 32.4648C121.058 32.3579 121.011 32.251 120.948 32.1436L121.122 31.9897L123.897 29.5649C124.544 28.9976 125.459 28.4292 126.358 28.3677L126.768 28.7666C125.9 28.8281 125.034 29.3647 124.402 29.8877L121.563 32.3896L124.67 38.5601C124.308 38.5601 124.055 38.2065 123.929 37.9302C122.984 36.1128 122.048 34.291 121.122 32.4648ZM118.267 34.9976L118.093 35.1509L117.225 38.1743C117.179 38.3438 117.179 38.4507 117.179 38.6504C116.768 38.6196 116.626 38.3276 116.689 38.0518L117.699 34.7515L117.983 34.522L118.267 34.9976ZM112.461 40.2778L112.052 39.8794L117.699 39.8794L118.094 40.2778L112.461 40.2778ZM109.402 38.605L108.897 38.5591C108.393 38.5591 108.771 37.4233 108.882 37.0698L111.105 29.6875C111.405 28.6279 112.004 28.3677 113.093 28.3677L113.502 28.7666C112.525 28.7666 111.878 28.8892 111.562 29.8877L109.339 37.27C109.275 37.5303 108.913 38.4204 109.402 38.605ZM104.528 30.2705L103.676 32.9258L102.918 33.709L104.181 29.6875C104.259 29.3804 104.386 29.1196 104.528 28.936C104.875 28.4897 105.396 28.3677 106.169 28.3677L106.578 28.7666C105.617 28.7666 104.97 28.8892 104.654 29.8877L104.528 30.2705ZM104.528 35.7954L102.098 38.4355C101.91 38.4355 101.499 38.3433 101.688 38.0361L104.528 34.8896L106.137 33.0933L105.711 34.521L104.528 35.7954ZM104.528 40.2778L104.402 40.2778L103.975 39.8794L109.607 39.8794L110.016 40.2778L104.528 40.2778ZM97.4293 40.2778L97.019 39.8794L102.634 39.8794L103.045 40.2778L97.4293 40.2778ZM96.8769 31.6978L96.7348 31.6978L96.3258 31.314L96.6727 31.314L96.8776 30.5771L97.6188 27.9375L98.0291 28.3208L97.0831 31.6978L96.8769 31.6978ZM93.5802 28.4438L93.9906 28.8428L91.3885 37.7139C91.3091 37.9907 91.2464 38.144 91.3418 38.4355C91.0095 38.3735 90.6319 38.2969 90.7099 38.0054L93.5802 28.4438ZM86.215 40.2778L85.8047 39.8794L92.035 39.8794L92.4453 40.2778L86.215 40.2778ZM86.9562 31.6978L86.5613 31.314C87.1297 30.3003 88.4221 29.2422 89.5897 28.7354L89.2901 29.4565C88.292 29.9497 87.4763 30.7329 86.9562 31.6978ZM81.0722 38.605L80.5671 38.5591C80.0467 38.5591 80.441 37.4082 80.5511 37.0698L82.7596 29.6875C83.0751 28.5977 83.6269 28.3677 84.7311 28.3677L85.1414 28.7666C84.1954 28.7666 83.5168 28.8892 83.2173 29.8877L81.0088 37.27C80.8987 37.6685 80.7092 38.2524 81.0722 38.605ZM77.145 40.2778L76.0094 40.2778L75.5991 39.8794L81.325 39.8794L81.7354 40.2778L77.145 40.2778ZM71.4191 37.9595C71.2456 38.0054 71.1035 38.0977 71.1195 38.2671C70.962 38.2979 70.6932 38.2212 70.6618 38.0366C70.6144 37.6694 70.9614 37.5615 71.4191 37.5C71.4665 37.5 71.5138 37.4849 71.5612 37.4849L71.9709 37.8999C71.8761 37.8989 71.6239 37.8989 71.4191 37.9595ZM71.4191 40.3389C71.1195 40.3081 70.914 40.2622 70.8827 40.2461C71.0401 40.231 71.2296 40.2007 71.4191 40.1851C72.3025 40.0469 73.3593 39.709 73.7536 38.6958L77.145 30.1465L77.3185 29.7173C77.4446 29.3638 78.1545 28.4126 78.7063 28.4883C78.2966 29.2104 78.0124 29.3638 77.5233 30.6382L77.145 31.605L74.4162 38.6035C73.769 40.2622 72.2551 40.4004 71.4191 40.3389ZM67.1283 27.6919L67.5386 28.0757L66.9395 37.4692C66.9395 37.7764 66.8921 38.4663 67.0502 38.7578C66.4511 38.4663 66.4037 38.1138 66.4511 37.377C66.6239 34.1382 66.8761 30.9155 67.1283 27.6919ZM62.7114 40.2778L62.3011 39.8794L67.0809 39.8794L67.4913 40.2778L62.7114 40.2778ZM62.0495 34.7983L61.4971 34.6445L62.9483 32.5117L62.8222 33.6621L62.0495 34.7983ZM59.3047 38.6963C58.7055 38.3125 59.9512 36.7778 60.1567 36.4561L62.6327 36.4561L62.6327 36.8394L60.5977 36.8394C60.3468 37.2212 59.2046 38.5918 59.7077 39.0737L59.3047 38.6963ZM56.6705 31.6367L56.2602 31.2524L55.8659 27.9375L56.2762 28.3208L56.6705 31.6367ZM53.4366 29.4102C53.105 29.2266 52.7421 29.0117 52.3484 28.9961L51.433 28.9961L50.5977 31.9736L50.0612 31.9429L51.0393 28.6118C52.3324 28.6123 52.5853 28.582 53.4366 29.4102ZM49.6195 35.1357L48.7048 38.3594C48.4366 38.3594 48.2158 38.2827 48.2625 37.9912L49.5562 33.5557L49.6189 33.5557C50.124 33.5557 50.7551 33.8013 50.9753 34.2764C50.8339 34.1841 50.1393 33.939 49.9658 33.939L49.6195 35.1357ZM49.6195 40.2778C49.4147 40.293 49.1939 40.293 48.973 40.293L44.0044 40.2778L43.5627 39.894L44.0044 39.894L48.8943 39.8794C49.1312 39.8794 49.3834 39.8638 49.6195 39.8481C52.3804 39.6641 54.9825 38.3745 54.9825 35.228C55.0933 35.5049 55.2507 35.9805 55.3455 36.3794C55.0773 37.9756 53.8629 40.0776 49.6195 40.2778ZM32.1108 39.1421C34.2245 39.1421 36.8586 40.4312 38.9883 40.4468C40.1713 40.4624 41.8273 39.9097 43.0109 39.5879C42.3484 40.2471 40.4081 41.0146 38.8936 40.9995C36.7805 40.9995 33.6567 39.5879 31.559 39.603C30.0765 39.603 29.5561 39.9102 28.4038 40.4165C29.3346 39.4644 30.7857 39.1421 32.1108 39.1421ZM44.0044 31.2222C43.2945 31.4678 42.4898 31.6372 41.7806 31.6372C39.6515 31.6372 36.5597 30.2095 34.43 30.2246C32.9628 30.2246 32.4424 30.5464 31.2748 31.0537C32.2369 30.0708 33.6887 29.7793 34.9978 29.7793C37.1275 29.7793 39.7456 31.0684 41.8753 31.084C42.5065 31.084 43.2638 30.9307 44.005 30.731C44.6836 30.562 45.3301 30.3628 45.8979 30.1938C45.5342 30.5464 44.8243 30.9302 44.0044 31.2222ZM44.0044 35.2432C43.137 35.7964 41.5911 36.334 40.3448 36.3174C38.215 36.3174 35.0919 34.9053 32.9942 34.9209C31.5116 34.9209 30.9912 35.228 29.8396 35.7344C30.7704 34.7827 32.2369 34.4609 33.5466 34.4609C35.6757 34.4609 38.2944 35.7495 40.4402 35.7656C41.465 35.7808 42.8848 35.3511 44.005 35.0288C44.1625 34.9829 44.3206 34.936 44.4627 34.9062C44.3353 35.0127 44.1932 35.1357 44.0044 35.2432Z" fill="#FFFFFF" fill-opacity="1.000000" fill-rule="evenodd"/>
	</g>
</svg>
