<svg width="165.000000" height="67.000000" viewBox="0 0 165 67" fill="none" xmlns="http://www.w3.org/2000/svg" xmlns:xlink="http://www.w3.org/1999/xlink">
	<desc>
			Created with Pixso.
	</desc>
	<defs>
		<clipPath id="clip407_16">
			<rect id="logo 1" width="165.000000" height="67.000000" fill="white" fill-opacity="0"/>
		</clipPath>
	</defs>
	<rect id="logo 1" width="165.000000" height="67.000000" fill="#FFFFFF" fill-opacity="0"/>
	<g clip-path="url(#clip407_16)">
		<path id="Vector" d="M52.2761 27.2524L56.0143 27.2524C56.8892 27.2524 57.6051 27.1992 58.427 27.1992C60.1768 27.1992 61.529 27.1465 63.1462 27.1465C65.5324 27.1465 66.8315 27.0137 68.2632 28.1279C69.4033 29.0298 69.8805 31.0728 69.0851 32.3994C68.767 32.9302 68.3162 33.1689 68.0511 33.5933C68.3428 33.8853 68.7935 34.0708 69.1912 34.6812C70.0131 35.9014 69.907 37.626 69.2177 38.6079C68.5549 39.5894 67.7595 39.9077 66.5399 40.1201C65.5589 40.3057 64.8961 40.3057 63.8886 40.3057C63.4379 40.3057 63.0402 40.3589 62.5099 40.3589C58.374 40.3589 56.0143 40.4121 51.8253 40.4121C51.8784 40.5713 52.1965 40.8896 52.3556 41.0752C52.7003 41.4468 53.0449 41.8179 53.4426 42.1362L54.0789 42.6934C54.6887 43.2241 55.7227 43.7549 56.4385 44.1265C57.446 44.6304 59.3815 45.1343 60.495 45.1343C62.669 45.1343 63.9947 44.9751 65.7975 44.0732C66.858 43.5425 67.8125 42.959 68.6609 42.1099C69.0321 41.7119 68.7935 42.0303 69.3502 41.4199C70.2252 40.4385 71.2592 38.7139 71.6303 37.4937C71.7894 36.9365 72.1341 35.7954 72.1606 35.2646C72.2136 34.0181 72.3196 32.7178 71.975 31.4707C71.9485 31.3384 71.8954 31.2319 71.869 31.0728C71.6569 30.1445 71.5508 29.9058 71.1266 28.9771C71.0471 28.791 71.0471 28.7646 70.941 28.6055L70.3047 27.5708C70.1987 27.4116 70.1721 27.3853 70.0661 27.2261C69.801 26.7749 68.6344 25.6074 68.1837 25.2095C67.2292 24.3872 65.6915 23.6177 64.4984 23.2197C62.0327 22.397 59.3815 22.583 57.1014 23.4053C56.6506 23.5645 56.1999 23.8032 55.7492 24.0156C55.6697 24.0688 55.6697 24.0688 55.5636 24.1216C54.4501 24.7319 52.9124 25.8994 52.1965 26.9873C52.1169 27.0933 52.0639 27.2524 52.2761 27.2524ZM61.1313 32.373L65.0287 32.3198C65.8771 32.3198 66.699 32.1606 66.699 31.0996C66.699 30.7544 66.5399 30.5156 66.3808 30.3301C66.1687 30.1177 65.9036 30.0649 65.5059 30.0649L61.1313 30.0649L61.1313 32.373ZM61.6616 35.2646L61.2108 35.2646L61.2108 37.4404L65.2142 37.3872C67.5209 37.3076 66.9641 35.6626 66.2748 35.3442C65.5854 35.0527 62.563 35.2646 61.6616 35.2646ZM59.8057 20.0625C56.9688 20.248 54.5562 20.9912 51.8518 23.2461C51.6927 23.3789 51.6397 23.4585 51.4542 23.5913C50.7648 24.1216 49.7308 25.5278 49.2536 26.2705C48.6968 27.0933 47.5833 29.3481 47.5833 30.2505C49.1475 30.4097 53.6017 30.2505 55.6166 30.1973C56.5181 30.1973 57.4195 30.1973 58.3209 30.1973L58.3209 32.5054C55.9613 32.5054 53.6282 32.6382 51.3216 32.6118L47 32.6118L47 35.5566C50.8178 35.5566 54.5296 35.4507 58.374 35.4507L58.374 37.52C56.4916 37.52 48.034 37.5464 47.6363 37.7588C47.5303 37.9976 47.7424 38.4219 47.8484 38.7139C48.087 39.4302 48.4317 40.1997 48.8029 40.8628C49.0945 41.3936 49.6778 42.2427 50.0225 42.6934C50.7383 43.5957 51.5867 44.3652 52.5146 45.1079C52.7532 45.2935 52.9654 45.4263 53.2305 45.6118C54.238 46.2754 55.2985 46.8589 56.4916 47.2305C56.7832 47.3364 57.0748 47.416 57.4195 47.5225C60.0178 48.2915 63.3849 48.106 65.9301 47.1509C67.4943 46.5669 68.5549 45.8774 69.801 44.8955C70.4903 44.3384 70.3842 44.3916 71.0471 43.7285C71.1531 43.6221 71.2592 43.5161 71.3652 43.4097C71.4713 43.2773 71.4977 43.2241 71.6303 43.0913C71.9485 42.7729 72.4257 42.0566 72.6909 41.6855C73.6719 40.2261 74.4672 38.21 74.7589 36.4585C74.918 35.5566 74.8915 35.4507 74.9445 34.7607C75.1831 32.6382 74.6263 29.9321 73.7779 28.1543C72.903 26.2974 72.1341 25.1299 70.7554 23.7505C70.5433 23.5381 70.3577 23.3789 70.1191 23.1665C69.9866 23.0605 69.907 22.981 69.7744 22.8745C69.6684 22.7686 69.5623 22.7153 69.4563 22.6094C68.0776 21.4951 65.3468 20.5933 64.3128 20.3809C62.8546 20.0625 62.2448 19.9033 59.8057 20.0625Z" fill="#FFFFFF" fill-opacity="1.000000" fill-rule="evenodd"/>
		<path id="Vector" d="M111.299 35.1807L113.28 35.1807C114.845 35.1807 115.523 35.6343 115.523 37.0493C115.523 38.3838 114.845 38.8643 112.498 38.8643C111.56 38.8643 110.021 38.731 109.213 38.4907L108.77 40.5464C109.865 40.7866 111.664 41 112.942 41C116.409 41 118 40.0923 118 37.3965C118 35.5278 117.452 34.2729 115.158 34.1665C117.322 33.9795 117.739 32.8315 117.739 31.1768C117.739 28.9341 116.488 28 112.942 28C111.533 28 109.891 28.2402 108.822 28.4536L109.265 30.4824C110.021 30.2422 111.533 30.082 112.472 30.082C114.741 30.082 115.262 30.4824 115.262 31.6035C115.262 32.8315 114.741 33.2056 113.176 33.2056L111.299 33.2056L111.299 35.1807ZM100.008 36.2217C98.9915 33.6323 97.7399 30.6694 96.5927 28.2402L93.4376 28.2402L93.4376 40.7065L95.654 40.7065L95.654 31.4434C96.723 33.8462 97.9746 37.1294 98.9133 39.5854L100.712 39.5854C101.703 37.1294 103.007 33.9263 104.102 31.4434L104.102 40.7329L106.345 40.7329L106.345 28.2402L103.346 28.2402C102.251 30.6426 100.973 33.6323 100.008 36.2217ZM88.0141 34.1128C90.2043 33.9263 90.5433 32.8848 90.5433 31.23C90.5433 29.4146 89.9958 28.2402 87.5447 28.2402L81 28.2402L81 40.7065L87.649 40.7065C89.6047 40.7065 90.8041 39.7456 90.8041 37.2896C90.8041 35.4478 90.3347 34.2197 88.0141 34.1128ZM83.2946 30.2422L87.0493 30.2422C87.8315 30.2422 88.0923 30.6963 88.0923 31.7104C88.0923 32.6445 87.8055 33.2056 87.0493 33.2056L83.3206 33.2056L83.3206 30.2422L83.2946 30.2422ZM83.2946 35.1538L87.0754 35.1538C87.9098 35.1538 88.327 35.8213 88.327 36.9961C88.327 38.1172 87.988 38.7578 87.1536 38.7578L83.2946 38.7578L83.2946 35.1538Z" fill="#FFFFFF" fill-opacity="1.000000" fill-rule="evenodd"/>
	</g>
</svg>
