<svg width="165.000000" height="67.000000" viewBox="0 0 165 67" fill="none" xmlns="http://www.w3.org/2000/svg" xmlns:xlink="http://www.w3.org/1999/xlink">
	<desc>
			Created with Pixso.
	</desc>
	<defs>
		<clipPath id="clip402_12424">
			<rect id="bosch-logo-simple 1" width="165.000000" height="67.000000" fill="white" fill-opacity="0"/>
		</clipPath>
	</defs>
	<rect id="bosch-logo-simple 1" width="165.000000" height="67.000000" fill="#FFFFFF" fill-opacity="0"/>
	<g clip-path="url(#clip402_12424)">
		<path id="Vector" d="M56.5447 31.8174C56.4869 31.7944 56.4176 31.7715 56.4176 31.7026C56.4176 31.6572 56.4407 31.623 56.4869 31.6001C56.5678 31.5659 58.5668 30.8569 58.5668 28.5259C58.5668 25.9316 56.7989 24.3887 53.8178 24.3887L46.5961 24.3887L46.5961 39.6343L54.4764 39.6343C56.7758 39.6343 59.2485 38.0229 59.2485 35.4287C59.2485 32.9487 57.3535 32.0801 56.5447 31.8174ZM50.2358 27.5088C50.2358 27.4517 50.282 27.4058 50.3398 27.4058L53.2054 27.4058C54.1529 27.4058 54.7999 28.0342 54.7999 28.9712C54.7999 29.7026 54.2222 30.4912 53.136 30.4912L50.3398 30.4912C50.282 30.4912 50.2358 30.4458 50.2358 30.3887L50.2358 27.5088ZM53.2054 36.6284L50.3398 36.6284C50.282 36.6284 50.2358 36.583 50.2358 36.5259L50.2358 33.4858C50.2358 33.4287 50.282 33.3828 50.3398 33.3828L53.136 33.3828C54.511 33.3828 55.2968 33.9658 55.2968 34.9941C55.2968 36.0571 54.5688 36.6284 53.2054 36.6284ZM83.6406 30.457L83.0859 30.3428C81.838 30.0801 80.6248 29.7485 80.6248 28.6855C80.6248 27.623 81.6301 27.1431 82.6238 27.1431C83.7908 27.1431 84.9463 27.6572 85.8244 28.5483L88.1122 26.3086C87.1301 25.2344 85.3853 24 82.566 24C79.1689 24 76.881 25.9087 76.881 28.7544C76.881 31.7598 79.2729 32.8916 81.2834 33.3145L81.8265 33.4287C83.7792 33.8398 84.7036 34.1484 84.7036 35.2456C84.7036 36.2285 83.8139 36.8799 82.4966 36.8799C80.9483 36.8799 79.5733 36.2056 78.5334 34.937L76.1877 37.2114C77.4357 38.6743 79.088 40 82.5428 40C85.4893 40 88.482 38.3086 88.482 35.063C88.4705 31.7373 86.1826 30.9829 83.6406 30.457ZM114.087 24.3887L114.087 29.9658C114.087 30.0229 114.041 30.0684 113.983 30.0684L109.246 30.0684C109.188 30.0684 109.142 30.0229 109.142 29.9658L109.142 24.3887L105.26 24.3887L105.26 39.6343L109.142 39.6343L109.142 33.6455C109.142 33.5884 109.188 33.543 109.246 33.543L113.983 33.543C114.041 33.543 114.087 33.5884 114.087 33.6455L114.087 39.6343L117.993 39.6343L117.993 24.3887L114.087 24.3887ZM97.4485 36.5142C95.7037 36.5142 93.8203 35.0742 93.8203 31.9087C93.8203 29.0171 95.5882 27.5088 97.3329 27.5088C98.6039 27.5088 99.4937 28.0342 100.199 29.2002L103.18 27.2456C101.654 25.0288 99.8403 24.0229 97.3098 24.0229C92.3528 24.0229 90.1343 27.9888 90.1343 31.9087C90.1343 36.6743 93.0692 40 97.2636 40C100.383 40 101.805 38.8687 103.295 36.7773L100.291 34.7773C99.6208 35.8516 98.8928 36.5142 97.4485 36.5142ZM67.9724 24C63.7318 24 60.8893 27.2114 60.8893 32C60.8893 36.7886 63.7318 40 67.9724 40C72.213 40 75.0554 36.7886 75.0554 32C75.0554 27.2114 72.213 24 67.9724 24ZM67.9724 36.5142C65.8925 36.5142 64.5521 34.7427 64.5521 32C64.5521 29.2686 65.8925 27.5088 67.9724 27.5088C70.0638 27.5088 71.4156 29.2686 71.4156 32C71.4156 34.7427 70.0638 36.5142 67.9724 36.5142Z" fill="#FFFFFF" fill-opacity="1.000000" fill-rule="nonzero"/>
	</g>
</svg>
