<svg width="165.000000" height="67.000000" viewBox="0 0 165 67" fill="none" xmlns="http://www.w3.org/2000/svg" xmlns:xlink="http://www.w3.org/1999/xlink">
	<desc>
			Created with Pixso.
	</desc>
	<defs>
		<clipPath id="clip439_634">
			<rect id="Frame" width="165.000000" height="67.000000" fill="white" fill-opacity="0"/>
		</clipPath>
	</defs>
	<rect id="Frame" width="165.000000" height="67.000000" fill="#FFFFFF" fill-opacity="0"/>
	<g clip-path="url(#clip439_634)">
		<path id="Vector" d="M84.778 31.4746C83.4642 32.8989 81.1902 33.0005 79.7752 31.6782C78.3603 30.3555 78.2592 28.0669 79.5731 26.6431C80.887 25.2188 83.0599 25.1172 84.5254 26.3887C85.9908 27.7109 86.1425 29.9487 84.8286 31.4238C84.8286 31.4746 84.778 31.4746 84.778 31.4746Z" fill="#FFFFFF" fill-opacity="1.000000" fill-rule="nonzero"/>
		<path id="Vector" d="M83.1105 16.8267C83.4137 17.1318 83.6664 17.3862 83.9191 17.7422C84.7781 18.7593 85.4856 19.9292 85.9909 21.1499C86.85 21.3022 87.7091 21.353 88.5681 21.353L88.7197 21.353L88.8713 21.353C91.1959 21.1499 93.3688 20.0815 94.9859 18.4033L95.188 18.1997C94.8848 17.793 94.5311 17.437 94.1773 17.0811C88.2144 10.9775 78.7646 10.3164 71.9932 15.4028C77.1981 12.8594 80.8365 14.5889 83.1105 16.8267Z" fill="#FFFFFF" fill-opacity="1.000000" fill-rule="nonzero"/>
		<path id="Vector" d="M71.033 34.2212C71.134 33.8145 71.2351 33.4072 71.3867 33.0513C71.8415 31.7798 72.4984 30.5591 73.2564 29.4912C72.9532 28.6772 72.5995 27.9146 72.1447 27.1514L72.0436 26.999C72.0436 26.9482 71.9931 26.897 71.9426 26.897C70.5782 24.9644 68.6074 23.5913 66.3333 23.0317L66.0302 22.981C65.8785 23.4385 65.6764 23.9473 65.5753 24.4561C63.4024 32.6445 67.5461 41.2397 75.2778 44.5967C70.5782 41.3418 70.275 37.2729 71.033 34.2212Z" fill="#FFFFFF" fill-opacity="1.000000" fill-rule="nonzero"/>
		<path id="Vector" d="M92.0548 36.0513C91.6506 36.1533 91.2463 36.2549 90.8925 36.3057C89.5787 36.5093 88.2143 36.5601 86.9004 36.4072C86.3445 37.0688 85.8392 37.7808 85.4855 38.5435L85.4349 38.6963L85.3844 38.8486C84.4243 40.9849 84.2221 43.4263 84.8791 45.6641C84.8791 45.7656 84.9296 45.8677 84.9801 45.9692C85.4855 45.8677 85.9908 45.7656 86.4456 45.6641C94.5815 43.4263 99.8875 35.543 98.8768 27.1509C98.4221 32.8979 95.0869 35.187 92.0548 36.0513Z" fill="#FFFFFF" fill-opacity="1.000000" fill-rule="nonzero"/>
		<path id="Vector" d="M71.9931 15.4023C69.517 17.1318 67.5462 19.5732 66.3839 22.4214C69.9718 23.1841 72.8522 25.8291 73.9639 29.3384C74.4187 29.0332 75.8842 27.9141 76.8443 24.7607C78.0066 20.9463 80.2301 18.1489 83.1105 16.9282C83.1105 16.8267 79.4215 11.5879 71.9931 15.4023Z" fill="#FFFFFF" fill-opacity="1.000000" fill-rule="nonzero"/>
		<path id="Vector" d="M83.6663 42.8672C83.6663 40.3237 84.6264 37.832 86.3446 35.9502L86.3446 35.8989C85.9908 35.543 84.778 34.6274 81.645 35.3398C77.8044 36.2549 73.5091 36.1025 71.0329 34.2207C71.0329 34.2207 68.3546 40.0186 75.3283 44.5962C78.0571 45.8677 81.1396 46.3765 84.1716 46.0205C83.8179 45.0029 83.6663 43.9351 83.6663 42.8672Z" fill="#FFFFFF" fill-opacity="1.000000" fill-rule="nonzero"/>
		<path id="Vector" d="M95.6427 18.709C93.7224 20.896 90.9936 22.1167 88.1132 22.1167C87.3552 22.1167 86.5972 22.0151 85.8897 21.8623L85.8392 21.8623C85.6876 22.3711 85.5865 23.897 87.7089 26.1855C90.3872 29.1353 92.4591 32.8989 92.0548 36.0015C92.0548 36.0015 98.3715 35.4419 98.8263 27.0503C98.5736 24.0493 97.4619 21.1504 95.6427 18.709Z" fill="#FFFFFF" fill-opacity="1.000000" fill-rule="nonzero"/>
		<path id="Vector" d="M68.1525 55.5825L67.2429 55.5825L67.2429 51.2593L68.7084 51.2593C69.7696 51.2593 70.4771 51.7168 70.4771 52.6836C70.4771 53.6499 69.7696 54.209 68.6073 54.209L68.1525 54.209L68.1525 55.5825ZM68.1525 53.3955L68.6579 53.3955C69.2137 53.3955 69.5674 53.1919 69.5674 52.7344C69.5674 52.2764 69.2643 52.0732 68.7084 52.0732L68.2031 52.0732L68.1525 53.3955Z" fill="#FFFFFF" fill-opacity="1.000000" fill-rule="nonzero"/>
		<path id="Vector" d="M71.134 53.395C71.134 51.9199 72.0436 51.1572 73.2059 51.1572C74.5198 51.1572 75.2778 52.022 75.2778 53.395C75.2778 54.9209 74.3682 55.6328 73.2059 55.6328C72.0436 55.6328 71.134 54.8701 71.134 53.395ZM74.3176 53.395C74.3176 52.4287 73.8629 51.9712 73.2059 51.9712C72.549 51.9712 72.1447 52.4287 72.1447 53.395C72.1447 54.3613 72.65 54.8193 73.307 54.8193C73.9639 54.8193 74.3176 54.4121 74.3176 53.395Z" fill="#FFFFFF" fill-opacity="1.000000" fill-rule="nonzero"/>
		<path id="Vector" d="M79.4215 55.4292C79.0678 55.6328 78.6635 55.6836 78.2592 55.6836C77.1475 55.7856 76.1874 54.9209 76.0863 53.8018C76.0863 53.7002 76.0863 53.5986 76.0863 53.4966C76.0863 52.022 76.9454 51.208 78.3603 51.208C78.7141 51.208 79.1183 51.2588 79.4215 51.4116L79.2194 52.1743C78.9667 52.0728 78.7141 52.0728 78.4614 52.022C77.7034 52.022 77.097 52.6323 77.097 53.395C77.097 54.1577 77.7034 54.7681 78.4614 54.7681C78.7141 54.7681 78.9667 54.6665 79.2194 54.5649L79.4215 55.4292Z" fill="#FFFFFF" fill-opacity="1.000000" fill-rule="nonzero"/>
		<path id="Vector" d="M82.8072 54.4126L80.988 54.4126L80.5837 55.5825L80.0278 55.5825L81.6449 51.2593L82.2008 51.2593L83.8178 55.5825L83.262 55.5825L82.8072 54.4126ZM81.1396 53.9038L82.605 53.9038L81.8976 51.8696L81.1396 53.9038Z" fill="#FFFFFF" fill-opacity="1.000000" fill-rule="nonzero"/>
		<path id="Vector" d="M85.6876 55.5825L85.1317 55.5825L85.1317 51.7681L83.8684 51.7681L83.8684 51.2593L86.951 51.2593L86.951 51.7681L85.6876 51.7681L85.6876 55.5825Z" fill="#FFFFFF" fill-opacity="1.000000" fill-rule="nonzero"/>
		<path id="Vector" d="M87.5574 53.395C87.5574 52.022 88.3659 51.1572 89.4776 51.1572C90.741 51.1572 91.4485 52.0728 91.4485 53.395C91.4485 54.8701 90.6399 55.6328 89.5282 55.6328C88.4164 55.6328 87.5574 54.7686 87.5574 53.395ZM90.842 53.395C90.842 52.2251 90.3367 51.666 89.4776 51.666C88.7196 51.666 88.1133 52.2251 88.1133 53.395C88.1133 54.5649 88.6691 55.1245 89.5282 55.1245C90.3872 55.1245 90.842 54.5142 90.842 53.395Z" fill="#FFFFFF" fill-opacity="1.000000" fill-rule="nonzero"/>
		<path id="Vector" d="M96.805 55.5825L96.2491 55.5825L95.9965 52.1748L94.8847 55.5825L94.3289 55.5825L93.2676 52.2256L93.015 55.5825L92.4591 55.5825L92.8128 51.2593L93.4698 51.2593L94.632 54.9722L95.7943 51.2593L96.4512 51.2593L96.805 55.5825Z" fill="#FFFFFF" fill-opacity="1.000000" fill-rule="nonzero"/>
	</g>
</svg>
