<svg width="165.000000" height="67.000000" viewBox="0 0 165 67" fill="none" xmlns="http://www.w3.org/2000/svg" xmlns:xlink="http://www.w3.org/1999/xlink">
	<desc>
			Created with Pixso.
	</desc>
	<defs>
		<clipPath id="clip402_6539">
			<rect id="gaz 1" width="165.000000" height="67.000000" fill="white" fill-opacity="0"/>
		</clipPath>
	</defs>
	<rect id="gaz 1" width="165.000000" height="67.000000" fill="#FFFFFF" fill-opacity="0"/>
	<g clip-path="url(#clip402_6539)">
		<path id="Vector" d="M43.0159 27L91.6216 27L97.5558 37.6836L106.711 37.6836L106.717 34.2744L104.193 34.2744L105.963 30.9858L96.8082 30.9858L96.811 27L121.323 27L121.33 27.8057L118.844 32.5771L122 32.5674L122 40.7993L82.8895 40.7993L82.198 39.3721L74.9164 39.3721L74.3629 40.811L69.4993 40.811L73.1727 31.0034L59.4683 31.0122L59.4683 40.7993L43 40.7993L43.0159 27ZM80.6758 36.4043L78.0287 31.0576L76.0245 36.4043L80.6758 36.4043Z" fill="#FFFFFF" fill-opacity="1.000000" fill-rule="evenodd"/>
	</g>
</svg>
