<svg width="165.000000" height="67.000000" viewBox="0 0 165 67" fill="none" xmlns="http://www.w3.org/2000/svg" xmlns:xlink="http://www.w3.org/1999/xlink">
	<desc>
			Created with Pixso.
	</desc>
	<defs>
		<clipPath id="clip402_6543">
			<rect id="kamaz____ 1" width="165.000000" height="67.000000" fill="white" fill-opacity="0"/>
		</clipPath>
	</defs>
	<rect id="kamaz____ 1" width="165.000000" height="67.000000" fill="#FFFFFF" fill-opacity="0"/>
	<g clip-path="url(#clip402_6543)">
		<path id="path14" d="M50.0005 26.0024C51.606 26.0083 53.2119 26.0034 54.8179 26.0054C54.8152 27.3662 54.8174 28.7271 54.8166 30.0884C54.8227 30.5459 54.8047 31.0044 54.8267 31.4619L54.8275 31.4727C54.8305 31.4702 54.8362 31.4653 54.8393 31.4629C55.1243 31.2148 55.379 30.9331 55.6398 30.6592C56.9385 29.3545 58.2109 28.0249 59.5065 26.7173C59.7438 26.4858 59.9626 26.2373 60.199 26.0059C61.706 26.001 63.2135 26.0122 64.7206 26C63.1657 27.5547 61.6076 29.1064 60.049 30.6572C61.0718 33.1992 62.0738 35.7505 63.0892 38.2959C63.1513 38.4194 63.1657 38.5728 63.2665 38.6729C64.6623 34.4521 66.0464 30.2266 67.433 26.0029C68.6323 26.0073 69.832 26.0054 71.0315 26.0039C72.3616 30.0303 73.7001 34.0537 75.0308 38.0796C75.058 38.1445 75.058 38.2285 75.1236 38.2734C75.1304 34.1836 75.1271 30.0928 75.1248 26.0024C77.0695 26.0088 79.0139 26.0024 80.9586 26.0059C81.6485 28.3325 82.3531 30.6558 83.0482 32.981C83.236 33.6294 83.4505 34.2705 83.6189 34.9243C83.6802 34.8555 83.7026 34.7661 83.7302 34.6816C84.6861 31.7881 85.653 28.8984 86.6058 26.0039C88.463 26.0063 90.3202 26.0063 92.1774 26.0039C92.1691 30.0728 92.1806 34.1421 92.1718 38.2109C92.1871 38.2119 92.2173 38.2129 92.2326 38.2134C92.5608 37.1484 92.9303 36.0957 93.2713 35.0347C94.0544 32.6724 94.827 30.3066 95.6118 27.9448C95.8157 27.2974 96.0463 26.6577 96.2443 26.0083C97.4478 26.0005 98.6516 26.0073 99.8554 26.0054C101.179 30.0869 102.519 34.1631 103.847 38.2432C103.957 38.5645 104.049 38.8916 104.171 39.2085C105.637 35.7261 107.091 32.2388 108.548 28.7524C107.069 28.7539 105.59 28.7505 104.111 28.7539C104.112 27.8374 104.115 26.9209 104.109 26.0039C107.739 26.0063 111.37 26.0054 115 26.0044C113.201 30.4165 111.419 34.8359 109.626 39.251C111.414 39.2476 113.202 39.2529 114.99 39.248C114.982 39.9624 114.948 40.6758 114.934 41.3906C114.914 41.583 114.954 41.7847 114.89 41.9717C113.712 41.9507 112.536 41.9873 111.36 41.979C110.15 41.9756 108.939 41.981 107.73 41.9888C105.237 41.9844 102.745 42.0044 100.254 41.9976C100.064 41.4048 99.8658 40.814 99.6781 40.2207C98.0895 40.2197 96.5012 40.2188 94.9131 40.2207C94.7207 40.8135 94.5232 41.4048 94.3332 41.998C92.0155 41.998 89.6978 41.9946 87.3802 42C87.3833 39.1387 87.3863 36.2769 87.3789 33.4155C87.3671 33.4282 87.3439 33.4541 87.332 33.4668C86.4676 36.3115 85.5939 39.1543 84.7312 41.999C83.4396 41.9951 82.1478 41.9976 80.8562 41.998C80.092 39.6011 79.3321 37.2021 78.5692 34.8047C78.4322 34.3345 78.2514 33.877 78.1393 33.4014L78.0882 33.4009C78.093 36.2671 78.0855 39.1333 78.0921 42C75.8637 41.9937 73.6353 41.999 71.407 41.9976C71.2302 41.4009 71.0213 40.8145 70.8388 40.2202C69.2491 40.2202 67.6593 40.2192 66.0696 40.2207C65.8709 40.812 65.6826 41.4067 65.4843 41.9985C63.3589 41.9966 61.2334 41.9971 59.1082 41.9985C58.1252 39.4609 57.1399 36.9248 56.1585 34.3872C55.7463 34.7632 55.3685 35.1772 54.9553 35.5542C54.904 35.6147 54.8121 35.6631 54.8179 35.7549C54.8156 37.8359 54.817 39.9165 54.8174 41.9976C53.2115 41.999 51.606 41.9937 50 42C50.0044 36.6675 50.0039 31.3354 50.0005 26.0024ZM68.4323 32.9502C67.9618 34.4619 67.4435 35.958 66.9707 37.4688C67.9596 37.4668 68.9483 37.4717 69.9372 37.4658C69.5016 36.1387 69.0683 34.8115 68.631 33.4849C68.5636 33.3076 68.5388 33.1089 68.4323 32.9502ZM97.2689 32.9678C97.1604 33.3745 97.0128 33.7686 96.8898 34.1709C96.5331 35.269 96.1759 36.3672 95.8224 37.4663C96.8076 37.4688 97.7933 37.4731 98.7785 37.4644C98.2858 35.9663 97.7937 34.4683 97.3123 32.9673L97.2689 32.9678Z" fill="#FFFFFF" fill-opacity="1.000000" fill-rule="nonzero"/>
	</g>
</svg>
