<svg width="165.000000" height="67.000000" viewBox="0 0 165 67" fill="none" xmlns="http://www.w3.org/2000/svg" xmlns:xlink="http://www.w3.org/1999/xlink">
	<desc>
			Created with Pixso.
	</desc>
	<defs>
		<clipPath id="clip402_6537">
			<rect id="lada-logo 1" width="165.000000" height="67.000000" fill="white" fill-opacity="0"/>
		</clipPath>
	</defs>
	<rect id="lada-logo 1" width="165.000000" height="67.000000" fill="#FFFFFF" fill-opacity="0"/>
	<g clip-path="url(#clip402_6537)">
		<path id="Vector" d="M48 33.5C48 26.0439 63.4457 20 82.5 20C101.554 20 117 26.0439 117 33.5C117 40.9561 101.554 47 82.5 47C63.4461 47 48 40.9565 48 33.5ZM90.1948 34.6821C90.1901 34.6597 90.1786 34.6396 90.162 34.624C90.1453 34.6084 90.1241 34.5977 90.1013 34.5942C89.1083 34.4521 88.1111 34.3408 87.111 34.2603C87.0521 34.25 87.0105 34.1968 87.0494 34.0703C90.238 30.7881 91.4491 26.6118 89.8369 23.3442C89.8387 23.3291 89.8435 23.3149 89.851 23.3018C89.8585 23.2886 89.8685 23.2773 89.8806 23.2681C89.8926 23.2588 89.9064 23.2515 89.9211 23.2476C89.9359 23.2437 89.9513 23.2422 89.9666 23.2441C100.939 24.5459 108.951 28.6455 108.951 33.5C108.951 39.4028 97.1086 44.188 82.5004 44.188C67.8922 44.188 56.0499 39.4028 56.0499 33.5C56.0499 28.3833 64.9503 24.106 76.8373 23.0576C76.8951 23.0596 76.9438 23.103 76.947 23.1924L74.366 37.0952C74.3178 37.3394 74.3254 37.5908 74.3882 37.832C74.451 38.0732 74.5676 38.2979 74.7295 38.4897C74.8914 38.6816 75.0947 38.8359 75.3247 38.9419C75.5548 39.0479 75.806 39.103 76.0603 39.103L76.1526 39.1074C78.4546 38.9902 80.9283 38.2876 83.2648 36.9678C83.927 36.5938 84.5643 36.1792 85.1729 35.7266C85.1903 35.7124 85.2117 35.7041 85.2342 35.7017C85.2567 35.6997 85.2794 35.7041 85.2993 35.7148C86.0775 36.2217 86.5253 36.8149 86.5253 37.4497C86.5253 38.312 85.6989 39.0986 84.3392 39.6953C82.7596 40.3887 80.4604 40.8247 77.9003 40.8247C75.7307 40.8247 73.7485 40.5112 72.2106 39.9888C72.1957 39.9863 72.1804 39.9863 72.1656 39.9897C72.1509 39.9927 72.1369 39.999 72.1245 40.0073C72.1122 40.0156 72.1016 40.0269 72.0936 40.0391C72.0854 40.0518 72.08 40.0654 72.0774 40.0801L71.8582 41.2588C71.8545 41.2866 71.8617 41.3154 71.8784 41.3384C71.895 41.3613 71.9199 41.3774 71.9482 41.3838C75.0763 42.0957 78.6738 42.501 82.5027 42.501C87.2658 42.501 91.1281 40.9893 91.1281 39.126C91.1281 38.4009 90.5444 37.7295 89.5513 37.1802C88.6812 36.7627 88.1332 36.2217 88.2675 35.8589C88.407 35.4824 89.2394 35.4224 90.2281 35.6826C90.2844 35.6899 90.3386 35.6572 90.3586 35.5586L90.1948 34.6821ZM82.5 26.1729C82.5 26.2456 82.4976 26.3184 82.4929 26.3896C82.6187 28.8672 81.0528 32.1816 78.1918 34.9805C77.6239 35.5366 77.019 36.0562 76.3813 36.5347C76.3561 36.5503 76.3256 36.5557 76.2964 36.5498C76.2367 36.5376 76.1978 36.4814 76.2084 36.4131L79.0125 21.314C79.0109 21.2861 78.9989 21.2598 78.9786 21.2397C78.9584 21.2202 78.9314 21.2085 78.9028 21.207C63.4489 21.918 51.4498 27.1504 51.4498 33.5C51.4498 40.3345 65.3513 45.875 82.5 45.875C99.649 45.875 113.551 40.3345 113.551 33.5C113.551 26.6655 99.6494 21.125 82.5 21.125C81.9567 21.125 81.4162 21.1309 80.8741 21.1421C80.8484 21.1421 80.8235 21.1509 80.8033 21.166C80.7831 21.1816 80.7687 21.2036 80.7625 21.228L80.4345 22.9897C80.4266 23.0371 80.4494 23.082 80.4895 23.1055C81.0896 23.375 81.598 23.8071 81.9544 24.3506C82.3108 24.8945 82.5002 25.5269 82.5 26.1729Z" fill="#FFFFFF" fill-opacity="1.000000" fill-rule="evenodd"/>
	</g>
</svg>
