<svg width="73.000000" height="29.000000" viewBox="0 0 73 29" fill="none" xmlns="http://www.w3.org/2000/svg" xmlns:xlink="http://www.w3.org/1999/xlink">
	<desc>
			Created with Pixso.
	</desc>
	<defs/>
	<path id="Vector" d="M0 28.5986L7.2262 28.5986L7.2262 12.165C10.5908 17.8301 13.8746 23.3584 17.2257 29C20.5569 23.4111 23.9081 17.7715 27.241 12.1621L27.241 28.5986L32.7338 28.5986L34.4672 28.5986L54.0564 28.5986L50.6996 23.1104L34.4673 23.1104L34.4673 16.998L47.2556 16.998L43.8988 11.5098L34.4673 11.5098L34.4673 5.54395L40.5609 5.54395L37.2041 0.0556641C33.8835 0.0556641 30.6088 0 27.2411 0L17.2338 17.3438L7.22644 0L0.000244141 0L0.000244141 28.5986L0 28.5986ZM73 0.0556641C61.4192 0.0556641 50.0623 0.0556641 38.4795 0.0556641L41.8362 5.54395L50.0704 5.54395L52.278 5.54395L52.278 23.1104L55.8856 29L59.5042 23.1104L59.5042 5.54395L61.4089 5.54395L69.6432 5.54395L72.9999 0.0556641L73 0.0556641Z" fill="#FFFFFF" fill-opacity="1.000000" fill-rule="evenodd"/>
</svg>
