<svg width="48.000000" height="48.000000" viewBox="0 0 48 48" fill="none" xmlns="http://www.w3.org/2000/svg" xmlns:xlink="http://www.w3.org/1999/xlink">
	<desc>
			Created with Pixso.
	</desc>
	<defs>
		<clipPath id="clip723_304">
			<rect id="Button" rx="24.000000" width="48.000000" height="48.000000" fill="white" fill-opacity="0"/>
		</clipPath>
	</defs>
	<rect id="Button" rx="24.000000" width="48.000000" height="48.000000" fill="#FF3E41" fill-opacity="1.000000"/>
	<g clip-path="url(#clip723_304)">
		<g opacity="0.000000"/>
		<path id="Vector" d="M28.1666 16.9165L19.8333 16.9165C17.3333 16.9165 15.6666 18.1665 15.6666 21.083L15.6666 26.9165C15.6666 29.833 17.3333 31.083 19.8333 31.083L28.1666 31.083C30.6666 31.083 32.3333 29.833 32.3333 26.9165L32.3333 21.083C32.3333 18.1665 30.6666 16.9165 28.1666 16.9165ZM28.5583 21.9917L25.95 24.0747C25.4 24.5166 24.7 24.7334 23.9999 24.7334C23.3 24.7334 22.5916 24.5166 22.05 24.0747L19.4417 21.9917C19.175 21.7749 19.1333 21.375 19.3416 21.1084C19.5583 20.8413 19.95 20.7915 20.2166 21.0083L22.825 23.0913C23.4583 23.5996 24.5333 23.5996 25.1666 23.0913L27.775 21.0083C28.0416 20.7915 28.4417 20.833 28.65 21.1084C28.8666 21.375 28.825 21.7749 28.5583 21.9917Z" fill="#FFFFFF" fill-opacity="1.000000" fill-rule="nonzero"/>
	</g>
</svg>
