<svg width="32.000000" height="32.000000" viewBox="0 0 32 32" fill="none" xmlns="http://www.w3.org/2000/svg" xmlns:xlink="http://www.w3.org/1999/xlink">
	<desc>
			Created with Pixso.
	</desc>
	<defs>
		<clipPath id="clip402_6453">
			<rect id="Phone" width="32.000000" height="32.000000" fill="white" fill-opacity="0"/>
		</clipPath>
	</defs>
	<g clip-path="url(#clip402_6453)">
		<path id="Phone" d="M14.6365 15.4775C14.4583 15.6562 14.2675 15.8145 14.0669 15.9512C14.355 16.3301 14.6625 16.6826 14.99 17.0098C15.3175 17.3379 15.6696 17.6455 16.0485 17.9336C16.186 17.7324 16.3439 17.542 16.5221 17.3633C18.0842 15.8018 20.6168 15.8018 22.179 17.3633C23.1041 18.2891 23.5241 19.5615 23.3535 20.7646L22.89 23.3906C18.7264 22.6562 15.4868 21.2783 13.1044 18.8955C10.722 16.5137 9.34412 13.2734 8.60938 9.11035L11.2355 8.64648C12.4382 8.47559 13.7114 8.89648 14.6365 9.82129C16.1985 11.3828 16.1985 13.916 14.6365 15.4775ZM11.8474 11.3164C12.0935 12.1621 12.3771 12.9346 12.7 13.6406C12.7172 13.625 12.7342 13.6094 12.7509 13.5928C13.2715 13.0713 13.2715 12.2275 12.7509 11.707C12.5005 11.4561 12.1754 11.3262 11.8474 11.3164ZM20.6833 20.1523C20.6736 19.8252 20.5436 19.5 20.2933 19.249C19.7726 18.7285 18.9284 18.7285 18.4077 19.249C18.3911 19.2656 18.3749 19.2832 18.3594 19.2998C19.0657 19.623 19.838 19.9062 20.6833 20.1523Z" fill="#FFFFFF" fill-opacity="1.000000" fill-rule="evenodd"/>
	</g>
</svg>
