<svg width="165.000000" height="67.000000" viewBox="0 0 165 67" fill="none" xmlns="http://www.w3.org/2000/svg" xmlns:xlink="http://www.w3.org/1999/xlink">
	<desc>
			Created with Pixso.
	</desc>
	<defs>
		<clipPath id="clip402_6548">
			<rect id="rot-front-1 1" width="165.000000" height="67.000000" fill="white" fill-opacity="0"/>
		</clipPath>
	</defs>
	<rect id="rot-front-1 1" width="165.000000" height="67.000000" fill="#FFFFFF" fill-opacity="0"/>
	<g clip-path="url(#clip402_6548)">
		<path id="Vector" d="M71.966 29.7144C72.3259 29.8018 72.7164 29.8604 73.138 29.9092C73.4465 29.1685 73.755 28.4365 74.0529 27.6958C75.0911 25.1309 76.0986 22.5859 77.1677 20.002C75.934 20.002 74.906 20.0801 74.0529 20.2168C73.21 20.353 72.5312 20.5483 71.966 20.811C70.3004 21.5913 69.6221 22.9175 68.8203 24.7998C68.4398 27.5005 69.3551 29.0898 71.966 29.7144ZM69.3242 37.2617C69.982 35.4673 70.527 33.917 71.1746 32.1226C71.4316 32.103 71.699 32.1128 71.966 32.103C72.0483 32.103 72.1409 32.0933 72.2334 32.0835C72.3979 31.6646 72.8192 30.7573 72.994 30.3379L66.9079 30.3379C66.6714 30.7573 66.4866 31.5083 66.2501 31.9272C66.6306 31.9272 67.237 31.9473 67.6175 31.9473C67.0724 33.5171 66.4764 35.0479 65.921 36.6084C65.8491 36.8228 65.7668 37.0376 65.6948 37.2617L69.3242 37.2617ZM59.2491 29.9775C60.1434 29.9971 61.0378 30.0361 61.9119 29.9971C63.3924 29.9385 64.7799 29.6362 65.9214 28.5928C66.6718 27.9199 67.309 26.9253 67.7923 25.4819C67.9667 22.6152 67.1753 21.2207 65.9214 20.5576C65.1197 20.1382 64.1119 20.021 63.0534 20.002C62.6729 20.9868 62.2924 21.9814 61.9123 22.9761C61.0291 25.3115 60.1414 27.645 59.2491 29.9775Z" fill="#FFFFFF" fill-opacity="1.000000" fill-rule="evenodd"/>
		<path id="Vector" d="M65.9214 34.5117C65.9626 34.4048 66.0037 34.2871 66.0449 34.1802C66.2403 33.1562 66.1683 32.3857 65.9214 31.8008C65.5307 30.8936 64.6874 30.4741 63.7009 30.3379C63.074 31.8203 62.5084 33.4395 61.9123 35.019C61.6366 35.772 61.3453 36.52 61.0386 37.2622C61.3471 37.2622 61.6346 37.2524 61.9123 37.2329C63.9576 37.0762 65.2016 36.3452 65.9214 34.5117ZM80.8897 29.8701C81.7737 29.8701 82.5961 29.8896 83.3669 29.8799C86.0807 29.8311 88.0656 29.3535 89.2067 25.8721C90.3688 21.9326 88.1992 20.0015 85.0436 20.0015C84.4982 21.3472 83.9326 22.6733 83.3674 23.9995C82.5241 25.9502 81.6812 27.8906 80.8897 29.8701ZM71.9661 34.6968C71.6164 35.5552 71.2774 36.4038 70.9278 37.2617L77.2089 37.2617C79.3064 32.269 81.3007 27.374 83.3669 22.4102C83.696 21.6108 84.035 20.811 84.3752 20.0015L83.3669 20.0015C81.5475 19.9917 79.7178 20.0308 77.8876 20.0015C76.6025 23.21 75.3277 26.3594 74.0529 29.5288C73.3511 31.2495 72.6555 32.9722 71.9661 34.6968ZM61.9119 20.8501C62.0353 20.5674 62.1588 20.2847 62.2719 20.002L56.2063 20.002C53.8007 25.8042 51.4465 31.46 49.0511 37.2622L55.2297 37.2622C57.5836 31.7715 59.5988 26.3301 61.9119 20.8501ZM62.796 30.3379C62.5018 30.3149 62.207 30.3022 61.9119 30.2993C60.4932 30.3086 59.0439 30.7285 58.0052 33.0098C57.1212 35.9058 58.3137 37.0273 60.1024 37.2617C60.7292 35.7891 61.3154 34.1313 61.9119 32.5518C62.1917 31.8086 62.4864 31.0703 62.796 30.3379ZM85.4024 30.3379C84.7858 31.8301 84.056 33.5469 83.3669 35.1748C83.0568 35.8936 82.7552 36.6152 82.4624 37.3398C82.7507 37.3013 83.0486 37.2915 83.3669 37.2817C84.6216 37.2524 86.061 37.1943 87.5616 34.7461C88.0754 31.7227 87.1507 30.416 85.4024 30.3379ZM108.226 31.5186L109.438 31.5186C108.74 33.3223 108.236 35.3018 107.547 37.1152L107.486 37.2622L111.217 37.2622C111.967 35.4385 112.256 33.4297 113.017 31.6064C113.325 31.6064 114.065 31.5967 114.373 31.5967C114.61 31.2061 114.703 30.7285 114.939 30.3384L108.719 30.3384C108.616 30.7285 108.328 31.1284 108.226 31.5186ZM107.599 30.3379L107.547 30.3379C106.426 30.3672 105.254 30.2993 104.144 30.3379C103.691 31.4404 103.352 32.6689 102.91 33.7803L101.717 33.7803C101.645 34.1704 101.225 34.9214 101.163 35.3115L101.934 35.3213L102.314 35.3213C102.211 35.6816 102.068 36.0718 101.934 36.4521C101.831 36.7256 101.738 36.998 101.666 37.2617L105.49 37.2617C106.19 35.0386 106.838 32.7368 107.547 30.5137C107.557 30.4551 107.578 30.3965 107.599 30.3379ZM107.547 20.3525L94.3166 20.3525C93.7411 21.7183 93.1347 23.0835 92.5482 24.4482C91.8488 26.0571 91.1606 27.647 90.5535 29.1973L115.309 29.1973C116.44 26.3013 117.858 23.249 119 20.3525L107.547 20.3525ZM102.705 30.3379L98.7367 30.3379C98.0583 32.23 97.3385 34.3359 96.6503 36.2964C96.5367 36.6279 96.424 36.9399 96.3113 37.2617L100.125 37.2617C100.67 35.7695 101.328 34.0537 101.934 32.415C102.201 31.6938 102.469 30.9917 102.705 30.3379ZM71.9661 38.7246L48.5369 38.7246L45 47.4028L70.8763 47.4028L71.9661 44.8774L74.0533 40.002L74.598 38.7246L71.9661 38.7246ZM96.6498 34.0439C97.1019 32.8247 97.1019 31.8887 96.6498 31.2549C96.259 30.7183 95.5289 30.3965 94.4598 30.2896C93.925 31.7422 93.2059 33.2734 92.5477 34.7749C92.192 35.5688 91.8594 36.3721 91.5506 37.1836C91.8797 37.2227 92.2187 37.2417 92.5477 37.252C94.1825 37.2617 95.7864 36.7061 96.6289 34.0923C96.64 34.0825 96.64 34.0635 96.6498 34.0439ZM84.2617 30.3379C83.9741 30.3379 83.6652 30.3477 83.3669 30.3477C82.4624 30.3379 81.5376 30.3091 80.6738 30.3379C78.988 34.4048 77.3018 38.9287 75.6263 43.0054C76.7572 43.064 77.9908 42.9858 79.1217 43.0444C80.5401 39.6118 81.9589 36.0327 83.3669 32.542C83.6652 31.8008 83.9634 31.0698 84.2617 30.3379ZM93.535 30.3867C93.2077 30.3467 92.8777 30.3306 92.5477 30.3379C90.3893 30.377 88.7957 31.4009 88.3737 33.4102C87.8389 35.8091 88.8265 37.6128 90.8003 37.2622C91.3659 35.8286 91.9623 34.3467 92.5477 32.874C92.8768 32.0352 93.2158 31.1963 93.535 30.3867Z" fill="#FFFFFF" fill-opacity="1.000000" fill-rule="evenodd"/>
	</g>
</svg>
