<svg width="165.000000" height="67.000000" viewBox="0 0 165 67" fill="none" xmlns="http://www.w3.org/2000/svg" xmlns:xlink="http://www.w3.org/1999/xlink">
	<desc>
			Created with Pixso.
	</desc>
	<defs>
		<clipPath id="clip402_6505">
			<rect id="RZD 1" width="165.000000" height="67.000000" fill="white" fill-opacity="0"/>
		</clipPath>
	</defs>
	<rect id="RZD 1" width="165.000000" height="67.000000" fill="#FFFFFF" fill-opacity="0"/>
	<g clip-path="url(#clip402_6505)">
		<path id="Vector" d="M95.2971 21.5542L95.2971 22.5938L104.195 22.5938C104.788 22.5938 105.678 22.5938 106.262 23.188C106.846 23.7827 106.855 24.6743 106.855 25.2593L106.855 34.1758C106.855 34.77 106.855 35.6616 106.262 36.2471C105.669 36.8413 104.779 36.8413 104.195 36.8413L99.8986 36.8413C99.1581 36.8413 98.1928 36.8413 97.8315 36.0239C97.4612 35.2061 97.9796 34.4639 98.4247 33.8623L104.213 26.1348L95.315 26.1348L91.756 30.8901C91.1592 31.6865 90.6433 32.376 90.6433 33.2676C90.6433 34.1592 91.1232 34.8008 91.756 35.6455L92.6458 36.8345C93.5355 38.0229 94.4252 39.2119 95.6116 39.8062C96.798 40.4009 98.2 40.4009 100.141 40.4009L103.988 40.4009C106.217 40.4009 109.542 40.4009 111.771 38.167C114 35.9336 114 32.6733 114 31.4844L114 27.918C114 26.7295 114 23.4692 111.771 21.2354C109.542 19.002 106.217 19.002 103.988 19.002L97.8405 19C97.2473 19 96.5068 19 95.9172 19.5942C95.324 20.189 95.324 20.9312 95.324 21.522L95.2971 21.5542Z" fill="#FFFFFF" fill-opacity="1.000000" fill-rule="nonzero"/>
		<path id="Vector" d="M84.6918 26.165L93.4996 26.165L82.8943 40.4668L74.0865 40.4668L84.6918 26.165Z" fill="#FFFFFF" fill-opacity="1.000000" fill-rule="nonzero"/>
		<path id="Vector" d="M50 28.687C50 28.0923 50 27.3501 50.5932 26.7593C51.1863 26.1685 51.9269 26.165 52.5165 26.165L67.4178 26.165C69.3411 26.165 70.7611 26.165 71.9475 26.7593C73.1339 27.354 74.0146 28.5425 74.9133 29.7314L75.8031 30.9204C76.434 31.7632 76.9158 32.4062 76.9158 33.2979C76.9158 34.1895 76.3999 34.8794 75.8031 35.6758L72.2441 40.4307L63.3464 40.4307L69.1344 32.7036C69.5784 32.1094 70.0978 31.3672 69.7275 30.542C69.3573 29.7241 68.3938 29.7241 67.6605 29.7241L60.6862 29.7241L60.6862 47.5566L53.5681 47.5566L53.5681 29.7241L50.009 29.7241L50.009 28.6831L50 28.687Z" fill="#FFFFFF" fill-opacity="1.000000" fill-rule="nonzero"/>
	</g>
</svg>
