<svg width="165.000000" height="67.000000" viewBox="0 0 165 67" fill="none" xmlns="http://www.w3.org/2000/svg" xmlns:xlink="http://www.w3.org/1999/xlink">
	<desc>
			Created with Pixso.
	</desc>
	<defs>
		<clipPath id="clip439_709">
			<rect id="severstal 1" width="165.000000" height="67.000000" fill="white" fill-opacity="0"/>
		</clipPath>
	</defs>
	<rect id="severstal 1" width="165.000000" height="67.000000" fill="#FFFFFF" fill-opacity="0"/>
	<g clip-path="url(#clip439_709)">
		<path id="path14" d="M60.7276 49.833L58.4157 49.833L53.667 38.5361L56.9834 38.5361L59.6566 45.728L59.7036 45.728L62.3287 38.5361L65.455 38.5361L60.7276 49.833Z" fill="#FFFFFF" fill-opacity="1.000000" fill-rule="nonzero"/>
		<path id="path16" d="M83.0727 41.4556C82.4996 41.1235 81.9528 41.0518 81.6416 41.0518C80.9737 41.0518 80.3537 41.2886 79.5659 41.9302L79.5659 49.7627L76.3429 49.7627L76.3429 38.5356L79.0642 38.5356L79.4222 39.6987C80.4502 38.7979 81.33 38.2749 82.524 38.2749C83.0727 38.2749 83.7423 38.4414 84.2413 38.7979L83.0727 41.4556Z" fill="#FFFFFF" fill-opacity="1.000000" fill-rule="nonzero"/>
		<path id="path18" d="M87.8151 50C85.8819 50 84.4264 49.5483 83.3513 48.8843L84.3551 46.5586C85.3087 47.2217 86.4325 47.6025 87.5054 47.6025C88.6028 47.6025 89.2951 47.2471 89.2951 46.582C89.2951 44.8018 84.0679 45.5146 84.0679 41.7168C84.0679 39.6514 85.7384 38.2754 88.4819 38.2754C89.9873 38.2754 91.0367 38.4893 91.9662 38.8457L91.9662 41.5034C90.9412 41.0986 89.8438 40.7432 88.6272 40.7432C87.6959 40.7432 87.194 41.0034 87.194 41.5498C87.194 43.0923 92.5148 42.5229 92.5148 46.4399C92.5148 49.0269 90.2246 50 87.8151 50Z" fill="#FFFFFF" fill-opacity="1.000000" fill-rule="nonzero"/>
		<path id="path20" d="M97.5348 50C95.4337 50 94.6461 48.8135 94.6461 47.2939L94.6461 41.3486L92.5701 41.3486L92.5701 38.8306L94.6461 38.8306L94.6461 35.9258L97.8686 34.9751L97.8686 38.8306L101.4 38.8306L100.764 41.3486L97.8686 41.3486L97.8686 46.0845C97.8686 46.9131 98.2016 47.3169 98.9424 47.3169C99.6329 47.3169 100.35 47.0103 100.779 46.7471L101.615 48.7422C100.327 49.668 98.6548 50 97.5348 50Z" fill="#FFFFFF" fill-opacity="1.000000" fill-rule="nonzero"/>
		<path id="path22" d="M108.348 44.6836L106.941 44.7305C105.557 44.7788 104.888 45.2534 104.888 46.1079C104.888 46.9609 105.508 47.5073 106.607 47.5073C107.465 47.5073 108.038 47.2217 108.348 46.9849L108.348 44.6836ZM109.136 49.7632L108.634 48.7891C107.895 49.4541 106.894 50 105.436 50C103.289 50 101.669 48.5762 101.669 46.3428C101.669 43.9707 103.6 42.7368 106.462 42.6416L108.372 42.5713C108.372 42.5229 108.372 42.4287 108.372 42.3804C108.372 41.1953 107.418 40.6963 106.298 40.6963C105.152 40.6963 104.171 41.0283 103.41 41.4561L102.429 39.5098C103.981 38.5107 105.461 38.2754 106.988 38.2754C109.996 38.2754 111.666 39.4854 111.666 42.4521L111.666 49.7769L109.136 49.7632Z" fill="#FFFFFF" fill-opacity="1.000000" fill-rule="nonzero"/>
		<path id="path24" d="M116.331 49.7769L116.331 31.7368L113.086 32.7129L113.086 49.7769L116.331 49.7769Z" fill="#FFFFFF" fill-opacity="1.000000" fill-rule="nonzero"/>
		<path id="path26" d="M37.2586 50C34.9883 50 33.3671 49.2637 32 48.4316L33.4345 45.7563C34.5226 46.4888 36.0688 47.3159 37.0717 47.3159C38.1051 47.3159 39.4532 46.9795 39.4532 45.7881C39.4532 43.7236 35.7292 43.354 33.8196 41.1953C33.2254 40.5073 32.8185 39.6284 32.8185 38.4175C32.8185 36.0449 34.7035 33.9546 38.1636 33.9546C39.8346 33.9546 41.2169 34.3828 42.1259 34.9053L42.0781 37.9009C40.7415 37.189 39.472 36.5649 38.1823 36.5649C37.0133 36.5649 36.2423 37.0815 36.2423 37.9829C36.2423 40.689 43.0074 40.4575 43.0074 45.3721C43.0074 48.2202 40.4778 50 37.2586 50Z" fill="#FFFFFF" fill-opacity="1.000000" fill-rule="nonzero"/>
		<path id="path28" d="M70.007 40.6309C68.7228 40.6309 67.9855 41.812 67.9855 42.8306L72.0505 42.8306C71.9783 41.7651 71.3846 40.6309 70.007 40.6309ZM68.0568 45.0283C68.1281 46.5405 69.5537 47.439 71.0507 47.439C72.1443 47.439 72.978 47.2271 74.2415 46.6357L74.9788 48.6689C73.4058 49.6377 71.86 49.9697 70.5281 49.9697C66.4895 49.9697 64.823 47.1309 64.823 44.2007C64.823 41.0327 66.7259 38.2891 70.1006 38.2891C73.1911 38.2891 75.3311 40.583 75.3311 44.0586C75.3311 44.2734 75.3311 44.6021 75.3311 45.0283L68.0568 45.0283Z" fill="#FFFFFF" fill-opacity="1.000000" fill-rule="nonzero"/>
		<path id="path30" d="M48.9642 40.6309C47.6802 40.6309 46.9449 41.812 46.9449 42.8306L51.0099 42.8306C50.9386 41.7651 50.342 40.6309 48.9642 40.6309ZM47.0143 45.0283C47.0865 46.5405 48.5131 47.439 50.011 47.439C51.1046 47.439 51.9355 47.2271 53.2008 46.6357L53.9382 48.6689C52.3633 49.6377 50.8176 49.9697 49.4866 49.9697C45.4462 49.9697 43.7832 47.1309 43.7832 44.2007C43.7832 41.0327 45.6853 38.2891 49.0582 38.2891C52.1485 38.2891 54.2889 40.583 54.2889 44.0586C54.2889 44.2734 54.2889 44.6021 54.2889 45.0283L47.0143 45.0283Z" fill="#FFFFFF" fill-opacity="1.000000" fill-rule="nonzero"/>
		<path id="path32" d="M129.875 28.8496C130.082 28.7842 130.283 28.6763 130.478 28.5381C130.778 27.769 131.056 26.9131 131.305 25.9614L131.304 25.9614C131.632 24.7002 131.831 23.562 131.928 22.5396C132.026 21.502 132.019 20.5845 131.936 19.7744C131.847 18.9272 131.622 18.0635 131.114 17.5674C130.607 17.0713 129.737 16.8623 128.882 16.7896C128.7 16.7759 128.511 16.7661 128.318 16.7598L127.412 16.7598C127 16.7725 126.565 16.8018 126.109 16.8511C126.329 16.9497 126.524 17.0713 126.685 17.2148C127.194 17.6792 127.432 18.4683 127.535 19.2427C127.61 19.8062 127.642 20.4258 127.62 21.103C127.584 22.1982 127.407 23.4463 127.039 24.8623C126.755 25.9556 126.419 26.9033 126.051 27.728C126.622 28.0771 127.167 28.355 127.685 28.5679C128.412 28.8662 129.22 29.0566 129.875 28.8496Z" fill="#FFFFFF" fill-opacity="1.000000" fill-rule="nonzero"/>
		<path id="path34" d="M117.846 26.5044C117.799 26.7153 117.794 26.9448 117.816 27.1836C118.335 27.8232 118.939 28.4878 119.641 29.1763C120.58 30.0923 121.478 30.8311 122.324 31.4243C123.176 32.0234 123.976 32.4746 124.716 32.8125C125.494 33.1709 126.362 33.4004 127.047 33.2119C127.733 33.0215 128.351 32.374 128.842 31.6743C129.31 31.0083 129.763 30.208 130.182 29.2544C129.983 29.3965 129.778 29.5083 129.567 29.5737C128.91 29.7808 128.103 29.5903 127.377 29.292C126.848 29.0752 126.293 28.7935 125.712 28.4355C124.78 27.8569 123.781 27.0811 122.731 26.0566L122.731 26.0547C121.922 25.2637 121.266 24.5024 120.732 23.7729C120.143 24.0884 119.63 24.4185 119.187 24.7583C118.564 25.2358 117.994 25.8345 117.846 26.5044Z" fill="#FFFFFF" fill-opacity="1.000000" fill-rule="nonzero"/>
		<path id="path36" d="M125.896 17.2983C125.744 17.1602 125.556 17.0444 125.35 16.9497C124.524 17.0728 123.635 17.2593 122.672 17.5239C121.414 17.8711 120.325 18.2686 119.387 18.6958C118.443 19.127 117.651 19.5874 116.991 20.0596C116.288 20.5615 115.638 21.1924 115.458 21.8848C115.28 22.5767 115.54 23.4404 115.909 24.2183C116.255 24.9497 116.725 25.7354 117.34 26.5674C117.315 26.3228 117.322 26.0898 117.37 25.875C117.518 25.2075 118.088 24.6064 118.709 24.1289C119.161 23.7837 119.683 23.4478 120.285 23.127C121.255 22.6104 122.433 22.1382 123.851 21.7461C124.941 21.4458 125.931 21.2612 126.832 21.166C126.852 20.4961 126.82 19.8823 126.745 19.3267C126.642 18.5522 126.405 17.7612 125.896 17.2983Z" fill="#FFFFFF" fill-opacity="1.000000" fill-rule="nonzero"/>
	</g>
</svg>
