<svg width="48.000000" height="48.000000" viewBox="0 0 48 48" fill="none" xmlns="http://www.w3.org/2000/svg" xmlns:xlink="http://www.w3.org/1999/xlink">
	<desc>
			Created with Pixso.
	</desc>
	<defs>
		<clipPath id="clip723_268">
			<rect id="Telegram" width="16.000000" height="16.000000" transform="translate(16.000000 16.000000)" fill="white" fill-opacity="0"/>
		</clipPath>
		<clipPath id="clip723_267">
			<rect id="Button" rx="24.000000" width="48.000000" height="48.000000" fill="white" fill-opacity="0"/>
		</clipPath>
	</defs>
	<rect id="Button" rx="24.000000" width="48.000000" height="48.000000" fill="#FFFFFF" fill-opacity="1.000000"/>
	<g clip-path="url(#clip723_267)">
		<g clip-path="url(#clip723_268)">
			<path id="Vector" d="M17.3582 23.5288C21.4924 21.7275 24.2493 20.54 25.6287 19.9663C29.5671 18.3281 30.3855 18.0435 30.9189 18.0342C31.0363 18.0322 31.2986 18.0615 31.4685 18.1992C31.6119 18.3154 31.6515 18.4727 31.6703 18.583C31.6892 18.6938 31.7128 18.9448 31.6941 19.1416C31.4806 21.3838 30.5571 26.8262 30.0873 29.3374C29.8885 30.4004 29.4971 30.7568 29.1182 30.7915C28.2946 30.8672 27.6692 30.2471 26.8715 29.7246C25.6233 28.9062 24.9181 28.397 23.7065 27.5986C22.3064 26.6758 23.214 26.1685 24.012 25.3398C24.2208 25.123 27.8495 21.8223 27.9198 21.5229C27.9286 21.4854 27.9366 21.3457 27.8538 21.272C27.7709 21.1987 27.6484 21.2236 27.5602 21.2437C27.4349 21.272 25.4409 22.5903 21.5781 25.1978C21.0121 25.5864 20.4995 25.7759 20.0402 25.7656C19.5338 25.7549 18.5597 25.4795 17.8356 25.2441C16.9475 24.9556 16.2416 24.8027 16.3031 24.3125C16.3351 24.0571 16.6868 23.7959 17.3582 23.5288Z" fill="#259CD8" fill-opacity="1.000000" fill-rule="evenodd"/>
		</g>
	</g>
</svg>
