<svg width="165.000000" height="67.000000" viewBox="0 0 165 67" fill="none" xmlns="http://www.w3.org/2000/svg" xmlns:xlink="http://www.w3.org/1999/xlink">
	<desc>
			Created with Pixso.
	</desc>
	<defs>
		<clipPath id="clip439_691">
			<rect id="volkswagen-3 1" width="165.000000" height="67.000000" fill="white" fill-opacity="0"/>
		</clipPath>
	</defs>
	<rect id="volkswagen-3 1" width="165.000000" height="67.000000" fill="#FFFFFF" fill-opacity="0"/>
	<g clip-path="url(#clip439_691)">
		<path id="Vector" d="M82.4998 15C92.679 15 101 23.3203 101 33.5176C101 43.6968 92.6792 52 82.4998 52C72.3203 52 64 43.6968 64 33.5171C64 23.3203 72.3203 15 82.4998 15ZM70.1142 23.564L76.7499 40.7783L79.1817 34.4897L85.5568 34.4897L87.9883 40.7783L94.6937 23.355C93.5105 21.9277 92.088 20.7168 90.4897 19.7769L85.8347 32.5967L79.2682 32.5967L74.5959 19.7246C72.8762 20.7148 71.365 22.0181 70.1142 23.564ZM97.3692 27.8892L89.8126 47.605C94.8853 44.9473 98.3763 39.6318 98.3763 33.5176C98.3763 31.5371 98.0292 29.6436 97.3692 27.8892ZM86.5121 48.8901L86.4605 48.4907L82.3605 37.8599L78.2611 48.4907L78.244 48.8208C79.5988 49.2026 81.0232 49.394 82.4998 49.394C83.8892 49.394 85.2269 49.2207 86.5121 48.8901ZM74.8738 47.4312L67.5088 28.2363C66.9182 29.8867 66.6054 31.6587 66.6054 33.5171C66.6054 39.4927 69.9406 44.7383 74.8738 47.4312ZM82.4998 17.623C83.8892 17.623 85.2615 17.7969 86.5645 18.144L82.5519 29.2441L78.5218 18.1265C79.821 17.7905 81.1577 17.6211 82.4998 17.623Z" fill="#FFFFFF" fill-opacity="1.000000" fill-rule="evenodd"/>
	</g>
</svg>
