<svg width="48.000000" height="48.000000" viewBox="0 0 48 48" fill="none" xmlns="http://www.w3.org/2000/svg" xmlns:xlink="http://www.w3.org/1999/xlink">
	<desc>
			Created with Pixso.
	</desc>
	<defs>
		<clipPath id="clip723_313">
			<rect id="Button" rx="24.000000" width="48.000000" height="48.000000" fill="white" fill-opacity="0"/>
		</clipPath>
	</defs>
	<rect id="Button" rx="24.000000" width="48.000000" height="48.000000" fill="#25CB63" fill-opacity="1.000000"/>
	<g clip-path="url(#clip723_313)">
		<path id="Vector" d="M15 33L16.2722 28.3804C15.4857 27.0244 15.0731 25.4888 15.0774 23.9189C15.0774 18.9995 19.1003 15 24.0387 15C26.437 15 28.6891 15.9282 30.3782 17.6138C32.0716 19.2988 33.0043 21.5405 33 23.9229C33 28.8423 28.9771 32.8418 24.0344 32.8418L24.0301 32.8418C22.5301 32.8418 21.0559 32.4653 19.745 31.7554L15 33ZM19.9728 30.1426L20.2436 30.3052C21.3868 30.981 22.6977 31.3359 24.0344 31.3403L24.0387 31.3403C28.1432 31.3403 31.4871 28.0166 31.4871 23.9272C31.4871 21.9468 30.7134 20.0859 29.308 18.6831C27.9026 17.2798 26.0287 16.5098 24.0387 16.5098C19.9341 16.5059 16.5903 19.8296 16.5903 23.9189C16.5903 25.3174 16.9814 26.6821 17.7292 27.8628L17.9055 28.145L17.1533 30.8784L19.9728 30.1426Z" fill="#FFFFFF" fill-opacity="1.000000" fill-rule="nonzero"/>
		<path id="Vector" d="M15 33L16.2722 28.3804C15.4857 27.0244 15.0731 25.4888 15.0774 23.9189C15.0774 18.9995 19.1003 15 24.0387 15C26.437 15 28.6891 15.9282 30.3782 17.6138C32.0716 19.2988 33.0043 21.5405 33 23.9229C33 28.8423 28.9771 32.8418 24.0344 32.8418L24.0301 32.8418C22.5301 32.8418 21.0559 32.4653 19.745 31.7554L15 33ZM19.9728 30.1426L20.2436 30.3052C21.3868 30.981 22.6977 31.3359 24.0344 31.3403L24.0387 31.3403C28.1432 31.3403 31.4871 28.0166 31.4871 23.9272C31.4871 21.9468 30.7134 20.0859 29.308 18.6831C27.9026 17.2798 26.0287 16.5098 24.0387 16.5098C19.9341 16.5059 16.5903 19.8296 16.5903 23.9189C16.5903 25.3174 16.9814 26.6821 17.7292 27.8628L17.9055 28.145L17.1533 30.8784L19.9728 30.1426Z" fill="#FFFFFF" fill-opacity="1.000000" fill-rule="nonzero"/>
		<path id="Vector" d="M21.7994 20.1885C21.6317 19.8164 21.4555 19.8081 21.2965 19.8037C21.1676 19.7993 21.0172 19.7993 20.8667 19.7993C20.7163 19.7993 20.4756 19.855 20.2693 20.0771C20.063 20.2998 19.4871 20.8389 19.4871 21.938C19.4871 23.0332 20.2908 24.0938 20.4025 24.2437C20.5143 24.3936 21.9541 26.7163 24.2278 27.6104C26.1189 28.3545 26.5057 28.2046 26.914 28.166C27.3223 28.1279 28.2378 27.6274 28.4269 27.1055C28.6117 26.5835 28.6117 26.1387 28.5558 26.0444C28.4999 25.9507 28.3495 25.895 28.126 25.7837C27.9025 25.6724 26.8022 25.1333 26.5959 25.0566C26.3896 24.9839 26.2392 24.9453 26.0931 25.1675C25.9427 25.3901 25.5128 25.8906 25.3839 26.0405C25.255 26.1899 25.1217 26.207 24.8982 26.0957C24.6747 25.9849 23.9527 25.7495 23.0974 24.9878C22.4312 24.3975 21.9799 23.666 21.851 23.4438C21.722 23.2212 21.8381 23.1016 21.9498 22.9902C22.0487 22.8921 22.1733 22.7295 22.2851 22.6011C22.3968 22.4727 22.4355 22.3789 22.5085 22.229C22.5816 22.0791 22.5472 21.9512 22.4914 21.8398C22.4355 21.7329 21.9971 20.6294 21.7994 20.1885Z" fill="#FFFFFF" fill-opacity="1.000000" fill-rule="evenodd"/>
	</g>
</svg>
